<svg width="10" height="15" viewBox="0 0 10 15" fill="none" xmlns="http://www.w3.org/2000/svg">
<path d="M8.53 5.58V3.65C8.53 1.64 6.95 0 5 0C3.05 0 1.47 1.64 1.47 3.65V5.58C0.54 6.52 0 7.79 0 9.12C0 11.88 2.24 14.12 5 14.12C7.76 14.12 10 11.88 10 9.12C10 7.79 9.46 6.51 8.53 5.58ZM2.06 3.65C2.06 1.96 3.38 0.59 5 0.59C6.62 0.59 7.94 1.96 7.94 3.65V5.07C7.93 5.07 7.92 5.06 7.91 5.05C7.82 4.99 7.73 4.93 7.65 4.88C6.86 4.38 5.94 4.12 5 4.12C4.06 4.12 3.14 4.38 2.35 4.88C2.26 4.93 2.18 4.99 2.09 5.05C2.08 5.06 2.07 5.07 2.06 5.07V3.65ZM5.88 9.71V11.18H4.12V9.71C3.75 9.43 3.53 8.99 3.53 8.53C3.53 7.72 4.19 7.06 5 7.06C5.81 7.06 6.47 7.72 6.47 8.53C6.47 8.99 6.25 9.43 5.88 9.71Z" fill="#04242B"/>
</svg>
