<svg width="15" height="19" viewBox="0 0 15 19" fill="none" xmlns="http://www.w3.org/2000/svg">
<path d="M1.8 0C0.8 0 0 0.8 0 1.8V12.6C0.3 12.2 0.8 12 1.3 12H1.6V8.8C1.6 9.2 2 9.5 2.4 9.4C2.5 9.4 2.6 9.3 2.7 9.3L5 7.5H6.4L5.5 11.1C5.5 11.2 5.5 11.3 5.5 11.5C5.5 12.1 5.9 12.7 6.4 12.9L9 14.3L9.4 17.4C9.4 17.8 9.8 18.1 10.2 18.1C10.6 18.1 10.9 17.7 10.9 17.3L10.4 13.8C10.4 13.6 10.3 13.5 10.1 13.3L8.4 11.7L9 9.3L10 10.7C10.1 10.9 10.4 11 10.6 11H13.4V17.3C13.4 17.7 13.7 18.1 14.2 18.1C14.7 18.1 15 17.8 15 17.3V1.8C15 0.8 14.2 0 13.2 0H1.8ZM1.8 1.5H13.3C13.4 1.5 13.6 1.6 13.6 1.8V9.5H11.2L9.3 6.8C9.3 6.8 9.3 6.8 9.3 6.7C9 6.3 8.5 6 8 6H7.9H7.8H4.8C4.6 6 4.5 6.1 4.4 6.1L1.8 8C1.6 8.2 1.5 8.3 1.5 8.5V1.8C1.5 1.6 1.6 1.5 1.8 1.5ZM10.5 3C9.7 3 9 3.7 9 4.5C9 5.3 9.7 6 10.5 6C11.3 6 12 5.3 12 4.5C12 3.7 11.3 3 10.5 3ZM4.7 12.5L4 13H1.3C0.9 13 0.5 13.3 0.5 13.8C0.5 14.2 0.8 14.6 1.3 14.6H4.3C4.5 14.6 4.6 14.5 4.7 14.5L6.1 14H6C5.4 13.5 4.9 13 4.7 12.5ZM0 15V17.3C0 17.7 0.3 18 0.8 18C1.3 18 1.6 17.7 1.6 17.2V15.4H1.3C0.8 15.5 0.3 15.3 0 15Z" fill="#04242B"/>
</svg>
