<svg width="21" height="24" viewBox="0 0 21 24" fill="none" xmlns="http://www.w3.org/2000/svg">
<path d="M10.3352 16.78C10.2302 16.645 10.0802 16.5 9.92517 16.5C9.35517 16.5 8.87018 16.76 8.51018 16.965C8.38518 17 8.28518 17.105 8.26018 17.235C8.23518 17.365 8.27518 17.495 8.37518 17.585C8.82518 17.965 9.61517 18.505 10.4902 18.505C11.3602 18.505 12.1452 17.965 12.5952 17.585C12.6952 17.5 12.7402 17.365 12.7102 17.24C12.6802 17.11 12.5852 17.01 12.4602 16.975C12.1052 16.755 11.6202 16.5 11.0502 16.5C10.9002 16.5 10.7452 16.645 10.6402 16.78C10.5552 16.86 10.4202 16.86 10.3352 16.78Z" fill="#04242B"/>
<path d="M17 11.025V9.45003C17 9.06003 16.97 8.68503 16.925 8.32003L15.35 7.96503C15.155 7.94503 14.96 7.93503 14.775 7.95503C14.21 8.01003 13.69 8.20003 13.22 8.41503C12.285 8.84503 11.545 9.40503 11.545 9.40503C11.21 9.65003 11.14 10.12 11.385 10.455C11.63 10.79 12.1 10.86 12.435 10.615C12.44 10.61 12.445 10.605 12.45 10.605C12.45 10.605 13.09 10.125 13.84 9.78003C14.215 9.61003 14.615 9.48003 14.92 9.45003C15.22 9.42003 15.38 9.46503 15.5 9.56503V10.5C13.82 10.505 12.32 11.035 11.575 12.235C11.425 12.465 11.495 12.775 11.725 12.925C11.955 13.075 12.265 13.005 12.415 12.775C12.42 12.77 12.42 12.765 12.425 12.76C12.565 12.53 12.765 12.335 13.005 12.165C13 12.195 12.995 12.22 12.995 12.25C12.995 12.665 13.33 13 13.745 13C14.16 13 14.495 12.665 14.495 12.25C14.495 12.005 14.375 11.79 14.19 11.65C14.59 11.555 15.025 11.5 15.5 11.5V12.73C15.5 14.305 14.675 16.21 13.585 17.655C13.04 18.38 12.43 18.99 11.865 19.405C11.3 19.82 10.785 20 10.5 20C10.215 20 9.70002 19.815 9.13502 19.405C8.57002 18.995 7.96003 18.38 7.41503 17.655C6.32503 16.205 5.50003 14.305 5.50003 12.73V11.5C5.97503 11.5 6.41003 11.555 6.80503 11.65C6.62003 11.79 6.50003 12.005 6.50003 12.25C6.50003 12.665 6.83503 13 7.25003 13C7.66503 13 8.00003 12.665 8.00003 12.25C8.00003 12.22 7.99503 12.195 7.99003 12.165C8.23003 12.335 8.43003 12.535 8.57002 12.76C8.71002 12.995 9.02002 13.075 9.25502 12.93C9.49002 12.79 9.57002 12.48 9.42502 12.245C9.42002 12.24 9.42002 12.235 9.41502 12.23C8.67002 11.03 7.17503 10.5 5.49003 10.495V9.55503C5.61003 9.45503 5.77003 9.41003 6.07003 9.44003C6.37503 9.47003 6.77003 9.60003 7.15003 9.77003C7.90003 10.115 8.54002 10.595 8.54002 10.595C8.86502 10.85 9.34002 10.79 9.59502 10.465C9.85002 10.14 9.79002 9.66503 9.46502 9.41003C9.46002 9.40503 9.45502 9.40003 9.45002 9.40003C9.45002 9.40003 8.71502 8.83503 7.77503 8.41003C7.30503 8.19503 6.78503 8.00503 6.22003 7.95003C6.03503 7.93003 5.84003 7.94003 5.64503 7.96003C5.82503 7.06503 6.18003 6.30504 6.66503 5.69504C6.83503 5.53004 6.79503 5.56004 7.14503 5.31504C7.80503 4.86004 8.33003 4.80004 8.54002 4.78504C9.82002 5.74004 11.32 5.89004 12.59 6.00504C13.965 6.13004 15.005 6.26004 15.655 7.00003C15.78 7.14503 15.955 7.22503 16.13 7.25003H16.325C16.465 7.23003 16.6 7.17003 16.715 7.07003C17.025 6.79503 17.06 6.32504 16.785 6.01004C15.685 4.75504 14.105 4.63004 12.725 4.50504C11.35 4.38004 10.13 4.25004 9.21502 3.44004C9.08002 3.32004 8.90002 3.25004 8.71502 3.25004C8.71502 3.25004 7.44503 3.20004 6.29003 4.07004C5.69503 4.52004 5.23003 5.12504 5.17503 5.16504C4.40504 6.35003 4.00004 7.82003 4.00004 9.45003V11.045C3.45504 11.205 3.16504 11.8 3.16504 12.4C3.16504 13.415 3.52004 14.295 4.22504 14.475C4.58004 15.95 5.32503 17.37 6.22003 18.555C6.30503 18.67 6.41503 18.73 6.50003 18.84C6.50003 18.845 6.50003 18.85 6.50003 18.85V22.245C6.49503 22.66 6.82503 23 7.24003 23.005C7.65503 23.01 7.99503 22.68 8.00003 22.265C8.00003 22.26 8.00003 22.25 8.00003 22.245V20.355C8.08503 20.425 8.16003 20.545 8.25003 20.61C8.96502 21.14 9.70502 21.5 10.5 21.5C11.295 21.5 12.035 21.14 12.75 20.615C12.84 20.55 12.915 20.43 13 20.36V22.25C12.995 22.665 13.325 23.005 13.74 23.01C14.155 23.015 14.495 22.685 14.5 22.27C14.5 22.265 14.5 22.255 14.5 22.25V18.855C14.5 18.85 14.5 18.845 14.5 18.845C14.59 18.735 14.695 18.675 14.78 18.56C15.67 17.38 16.41 15.965 16.77 14.5H16.79C17.54 14.36 17.915 13.45 17.915 12.4C17.915 11.77 17.6 11.145 17 11.025Z" fill="#04242B"/>
<path d="M19.245 4.46499C17.785 1.685 15.04 0 10.75 0C6.46004 0 3.61005 1.67 2.02005 4.43999C0.430055 7.20998 5.60743e-05 10.95 5.60743e-05 15.25V22.2499C-0.00494391 22.6649 0.325055 23.0049 0.740054 23.0099C1.15505 23.0149 1.49505 22.6849 1.50005 22.2699C1.50005 22.2649 1.50005 22.2549 1.50005 22.2499V15.25C1.50005 11.05 1.96505 7.53998 3.32005 5.18499C4.67504 2.82999 6.82504 1.5 10.75 1.5C12.15 1.5 13.305 1.67 14.27 1.98999C14.275 1.98999 14.28 1.99499 14.285 1.99499C16.015 2.57499 17.125 3.65499 17.92 5.15999C19.15 7.50998 19.5 11.04 19.5 15.25V22.2499C19.495 22.6649 19.825 23.0049 20.24 23.0099C20.655 23.0149 20.995 22.6849 21 22.2699C21 22.2649 21 22.2549 21 22.2499V15.25C21 10.96 20.705 7.23998 19.245 4.46499Z" fill="#04242B"/>
</svg>
