<svg width="126" height="38" viewBox="0 0 126 38" fill="none" xmlns="http://www.w3.org/2000/svg">
<rect x="0.116211" y="0.785156" width="125.796" height="36.4397" rx="18.2198" fill="black"/>
<path d="M102.781 25.9758C106.642 25.9758 109.911 22.93 109.911 19.0047C109.911 15.0794 106.642 12.0337 102.781 12.0337C98.9204 12.0337 95.6518 15.0794 95.6518 19.0047C95.6518 22.93 98.9204 25.9758 102.781 25.9758Z" fill="url(#paint0_linear_1_5547)" fill-opacity="0.38" stroke="#0B0C0F" stroke-width="4.753"/>
<g filter="url(#filter0_f_1_5547)">
<path d="M104.071 15.4102C104.364 15.3485 104.748 15.2749 105.34 15.3882C105.768 15.4701 106.134 15.7322 106.426 16.0552C106.611 16.2594 106.762 16.4918 106.874 16.7437L107.083 17.2149C107.245 17.5796 107.357 17.9646 107.415 18.3594C107.494 18.8924 107.474 19.4353 107.358 19.9613L107.223 20.5667L107.203 20.626C107.02 21.1551 106.597 21.566 106.063 21.7331L105.827 21.8124C105.338 21.9765 104.805 21.9481 104.336 21.7331L103.445 21.1669C103.006 20.8881 102.705 20.4369 102.616 19.9244C102.583 19.7393 102.522 19.5581 102.436 19.3911C102.25 19.0314 102.182 18.6173 102.246 18.2176L102.388 17.3369C102.414 17.1746 102.455 17.0151 102.511 16.8606L102.653 16.4674C102.778 16.1228 103.023 15.8352 103.344 15.6579C103.568 15.5339 103.82 15.463 104.071 15.4102Z" fill="url(#paint1_radial_1_5547)"/>
</g>
<g filter="url(#filter1_f_1_5547)">
<path d="M99.74 15.6892L99.2686 16.1176C99.1733 16.2043 99.0873 16.3008 99.0123 16.4056L98.993 16.4325C98.935 16.5135 98.8691 16.5885 98.7961 16.6564C98.724 16.7235 98.6691 16.8069 98.6359 16.8996L98.5999 17.0001C98.5847 17.0426 98.5595 17.0809 98.5264 17.1117C98.4876 17.1478 98.4598 17.1941 98.446 17.2452L98.3874 17.4634C98.3675 17.5378 98.339 17.6096 98.3025 17.6774C98.2661 17.7453 98.2376 17.8171 98.2176 17.8915L98.138 18.1879L98.1122 18.323C98.0564 18.615 98.0283 18.9117 98.0283 19.209V19.5015C98.0283 19.5775 98.0472 19.6524 98.0832 19.7195C98.1192 19.7865 98.138 19.8614 98.138 19.9375V20.0225C98.138 20.0924 98.1472 20.1621 98.1653 20.2296L98.1964 20.3454C98.2305 20.4722 98.2791 20.5947 98.3412 20.7104L98.4671 20.9447L98.5568 21.144C98.6426 21.3346 98.7606 21.509 98.9058 21.6594L98.9645 21.7062C99.2095 21.9017 99.5697 21.8474 99.7478 21.5895C99.8178 21.4879 99.9211 21.4133 100.04 21.379C100.201 21.3323 100.33 21.213 100.39 21.0565L100.508 20.7491C100.561 20.6122 100.588 20.4669 100.588 20.3203V19.652V18.762V18.4762C100.588 18.2457 100.638 18.0179 100.734 17.8084C100.83 17.599 100.88 17.3712 100.88 17.1407V16.6006V16.092V15.8536C100.88 15.6864 100.791 15.5318 100.646 15.4479C100.517 15.3732 100.361 15.3641 100.224 15.4235L100.001 15.5207C99.9051 15.5622 99.8171 15.6191 99.74 15.6892Z" fill="url(#paint2_radial_1_5547)"/>
</g>
<defs>
<filter id="filter0_f_1_5547" x="100.321" y="13.4279" width="9.04263" height="10.3913" filterUnits="userSpaceOnUse" color-interpolation-filters="sRGB">
<feFlood flood-opacity="0" result="BackgroundImageFix"/>
<feBlend mode="normal" in="SourceGraphic" in2="BackgroundImageFix" result="shape"/>
<feGaussianBlur stdDeviation="0.9506" result="effect1_foregroundBlur_1_5547"/>
</filter>
<filter id="filter1_f_1_5547" x="96.1271" y="13.4836" width="6.65396" height="10.2419" filterUnits="userSpaceOnUse" color-interpolation-filters="sRGB">
<feFlood flood-opacity="0" result="BackgroundImageFix"/>
<feBlend mode="normal" in="SourceGraphic" in2="BackgroundImageFix" result="shape"/>
<feGaussianBlur stdDeviation="0.9506" result="effect1_foregroundBlur_1_5547"/>
</filter>
<linearGradient id="paint0_linear_1_5547" x1="102.359" y1="22.3741" x2="102.26" y2="16.4521" gradientUnits="userSpaceOnUse">
<stop offset="0.0381927" stop-color="#112D71"/>
<stop offset="1" stop-color="#1D2D4B"/>
</linearGradient>
<radialGradient id="paint1_radial_1_5547" cx="0" cy="0" r="1" gradientUnits="userSpaceOnUse" gradientTransform="translate(104.323 17.8646) rotate(81.5883) scale(3.54074 2.15362)">
<stop stop-color="#1D7EFF"/>
<stop offset="0.728416" stop-color="#153864"/>
</radialGradient>
<radialGradient id="paint2_radial_1_5547" cx="0" cy="0" r="1" gradientUnits="userSpaceOnUse" gradientTransform="translate(99.893 16.9627) rotate(103.297) scale(5.24571 1.67964)">
<stop stop-color="#1D7EFF"/>
<stop offset="1" stop-color="#153864"/>
</radialGradient>
</defs>
</svg>
