<?xml version="1.0" standalone="no"?>
<!DOCTYPE svg PUBLIC "-//W3C//DTD SVG 20010904//EN"
 "http://www.w3.org/TR/2001/REC-SVG-20010904/DTD/svg10.dtd">
<svg version="1.0" xmlns="http://www.w3.org/2000/svg"
 width="1024.000000pt" height="1024.000000pt" viewBox="0 0 1024.000000 1024.000000"
 preserveAspectRatio="xMidYMid meet">
<metadata>
Created by potrace 1.14, written by Peter Selinger 2001-2017
</metadata>
<g transform="translate(0.000000,1024.000000) scale(0.100000,-0.100000)"
fill="#000000" stroke="none">
<path d="M3988 9798 c-36 -87 -41 -102 -40 -110 1 -5 -2 -8 -8 -8 -5 0 -10 -8
-10 -18 0 -10 -3 -22 -7 -26 -5 -4 -8 -11 -9 -14 -1 -8 -8 -26 -53 -132 -17
-38 -28 -70 -25 -70 3 0 -2 -7 -10 -16 -9 -8 -16 -23 -16 -32 0 -10 -7 -28
-16 -40 -8 -12 -13 -22 -9 -22 3 0 -1 -12 -9 -28 -8 -15 -38 -86 -66 -157 -29
-72 -63 -154 -76 -183 -13 -29 -24 -55 -24 -57 0 -3 -9 -24 -19 -48 -11 -23
-45 -103 -75 -177 -30 -74 -66 -161 -80 -193 -14 -31 -26 -59 -26 -62 -1 -8
-29 -76 -70 -170 -5 -11 -24 -60 -43 -108 -19 -49 -37 -85 -39 -80 -2 4 -4
222 -4 484 l1 476 -787 0 c-434 0 -789 -3 -789 -6 -6 -30 -2 -1534 4 -1538 5
-3 296 -5 647 -5 583 -1 638 -2 633 -17 -7 -18 -19 -48 -84 -196 -24 -55 -44
-102 -45 -105 0 -3 -9 -25 -20 -50 -10 -25 -18 -48 -16 -52 1 -5 -2 -8 -8 -8
-5 0 -10 -4 -10 -10 0 -5 -13 -39 -30 -75 -16 -36 -30 -68 -30 -70 0 -2 -12
-30 -26 -62 -15 -31 -27 -62 -29 -67 -2 -11 -20 -52 -69 -161 -13 -27 -31 -72
-41 -100 -10 -27 -22 -54 -25 -60 -14 -20 -93 -208 -93 -221 0 -8 -4 -14 -8
-14 -6 0 -13 -17 -24 -55 -1 -5 -18 -44 -37 -85 -19 -41 -40 -90 -47 -107
l-13 -33 -317 -2 -316 -3 -1 -775 0 -775 -23 -55 c-12 -30 -27 -62 -32 -70 -5
-8 -12 -22 -15 -30 -28 -73 -39 -101 -55 -137 -11 -24 -19 -45 -19 -48 0 -2
-12 -30 -26 -62 -14 -32 -31 -71 -39 -88 -7 -16 -33 -79 -58 -140 -25 -60 -54
-128 -63 -150 -10 -22 -18 -42 -19 -45 -3 -8 -14 -35 -72 -170 -30 -69 -55
-129 -57 -135 -1 -5 -7 -20 -14 -31 -6 -12 -8 -24 -5 -28 3 -3 1 -6 -5 -6 -7
0 -12 -6 -12 -14 0 -7 -20 -58 -44 -114 -24 -55 -42 -103 -38 -106 3 -3 0 -6
-6 -6 -7 0 -12 -5 -12 -10 0 -8 -59 -155 -115 -285 -85 -196 -217 -512 -219
-520 -1 -5 -4 -14 -8 -20 -3 -5 -22 -50 -43 -100 -50 -122 -64 -156 -81 -186
-7 -14 -11 -29 -7 -33 3 -3 2 -6 -4 -6 -5 0 -10 -6 -10 -12 -1 -10 -92 -231
-142 -343 -22 -50 -111 -261 -116 -275 -1 -3 -6 -16 -12 -30 -6 -14 -45 -108
-88 -210 -43 -102 -81 -190 -86 -196 -5 -6 -10 -19 -12 -30 -2 -10 -12 -37
-22 -59 -18 -42 -37 -87 -40 -95 -5 -16 -28 -69 -41 -94 -8 -16 -14 -31 -14
-33 0 -1 378 -3 840 -3 l839 0 12 40 c7 22 17 40 22 40 6 0 8 3 4 6 -3 3 10
43 30 87 19 45 36 87 38 92 1 6 9 27 19 47 9 21 16 40 16 44 0 3 6 20 14 37 8
18 26 61 41 97 14 36 31 76 37 90 13 31 16 39 72 175 66 165 177 437 189 465
6 14 11 27 11 30 1 3 9 22 20 44 10 21 19 44 21 50 1 6 7 22 12 36 6 14 32 77
58 140 25 63 53 131 61 150 22 51 30 69 54 130 11 30 25 64 30 75 5 11 23 56
41 100 17 44 39 98 49 120 39 90 55 130 55 135 1 20 71 170 82 174 7 3 13 1
13 -5 0 -6 6 -7 13 -2 14 9 182 7 197 -2 5 -3 10 -3 10 2 0 9 922 8 945 -1 8
-3 15 -2 15 2 0 8 923 7 945 -2 8 -3 15 -2 15 2 0 8 444 7 466 -2 7 -3 14 -2
14 2 0 8 284 7 306 -2 8 -3 14 -2 14 2 0 8 284 7 306 -2 8 -3 14 -2 14 2 0 8
284 7 306 -2 8 -3 14 -2 14 2 0 8 284 7 306 -2 8 -3 14 -2 14 2 0 14 114 6
122 -9 16 -30 68 -150 68 -159 0 -5 9 -29 20 -52 11 -24 52 -122 90 -218 39
-96 75 -184 80 -195 13 -28 69 -164 71 -173 1 -4 9 -23 17 -42 9 -19 17 -39
18 -45 2 -10 78 -195 94 -230 9 -18 31 -72 35 -85 1 -3 6 -16 12 -30 6 -14 31
-74 55 -135 25 -60 49 -119 53 -130 5 -11 9 -22 10 -25 1 -3 6 -16 12 -30 6
-14 21 -50 32 -80 12 -30 28 -68 35 -85 8 -16 33 -77 56 -135 23 -58 48 -119
57 -137 8 -17 16 -37 17 -45 2 -7 10 -30 20 -50 9 -21 16 -42 16 -48 0 -5 5
-10 11 -10 5 0 8 -4 5 -8 -2 -4 1 -21 9 -37 13 -30 60 -141 76 -183 l9 -22
884 0 c839 0 885 1 879 18 -3 9 -10 22 -14 27 -4 6 -8 13 -8 18 0 4 -9 28 -21
53 -11 26 -20 52 -20 58 0 7 -4 16 -9 22 -6 5 -24 45 -42 89 -17 44 -35 85
-39 90 -5 6 -8 12 -8 15 -1 9 -42 113 -107 265 -91 214 -89 208 -87 218 1 4
-2 7 -8 7 -5 0 -10 7 -10 15 0 8 -4 23 -10 33 -5 9 -32 71 -59 137 -27 66 -57
138 -67 160 -9 22 -18 42 -19 45 -4 10 -19 46 -35 85 -10 22 -34 81 -55 130
-20 50 -43 104 -50 120 -51 116 -82 195 -77 199 3 4 1 6 -4 6 -6 0 -16 17 -23
38 -7 20 -19 51 -26 67 -8 17 -28 64 -45 105 -46 110 -46 111 -69 162 -12 26
-21 50 -21 53 0 2 -13 34 -30 70 -16 36 -30 67 -30 69 0 2 -8 21 -17 42 -9 22
-17 41 -18 44 -1 3 -6 16 -12 30 -6 14 -48 113 -93 220 -44 107 -87 209 -94
225 -8 17 -30 71 -51 120 -21 50 -46 110 -57 135 -31 70 -33 75 -103 245 -37
88 -73 174 -80 190 -46 104 -115 273 -115 283 0 7 -5 12 -10 12 -6 0 -9 3 -8
8 0 4 -2 15 -7 25 -4 10 -5 20 -2 23 3 3 208 6 456 6 l451 0 1 96 c0 53 0 402
0 775 l1 677 774 0 774 0 0 764 c0 420 -3 771 -6 780 -3 8 -12 12 -20 9 -22
-8 -944 -9 -944 -1 0 4 -7 5 -16 1 -8 -3 -138 -6 -287 -7 l-272 -1 -2 -768
c-1 -423 -3 -771 -6 -773 -4 -4 -340 -12 -1197 -28 -91 -2 -169 -5 -175 -6 -5
-1 -14 -1 -20 0 -5 1 -42 1 -81 1 l-71 -2 -22 50 c-23 54 -43 103 -46 111 -1
3 -8 19 -15 35 -7 17 -14 32 -15 35 -6 16 -20 50 -36 85 -10 22 -39 92 -65
155 -25 63 -54 133 -64 155 -23 50 -138 325 -197 469 -24 60 -53 126 -64 148
-11 21 -16 38 -12 38 4 0 2 5 -5 12 -7 7 -12 20 -12 30 0 10 -4 18 -10 18 -5
0 -10 9 -10 19 0 11 -5 23 -10 26 -6 4 -8 11 -5 16 4 5 1 9 -4 9 -6 0 -10 3
-9 8 1 4 -4 18 -9 32 -6 14 -20 48 -31 76 l-21 52 439 -2 c286 -1 441 3 443 9
2 6 3 354 2 775 l0 765 -735 2 c-404 1 -754 2 -776 2 l-42 1 -42 108 c-23 59
-47 113 -52 120 -6 6 -7 12 -3 12 4 0 2 7 -5 15 -7 8 -10 15 -6 15 4 0 -1 11
-10 25 -9 14 -13 25 -9 25 4 0 3 6 -3 13 -5 6 -22 44 -37 82 -26 67 -42 104
-71 172 -8 17 -14 33 -14 36 0 2 -8 22 -17 43 -9 22 -17 41 -18 44 -1 3 -6 16
-12 30 -6 14 -19 44 -28 68 l-17 42 -727 0 -727 0 -26 -62z m1793 -802 c1 -6
2 -354 3 -774 1 -671 -1 -762 -14 -763 -54 -3 -171 1 -180 6 -5 3 -10 3 -10
-2 0 -9 -282 -8 -306 1 -8 3 -14 2 -14 -2 0 -4 -108 -6 -240 -6 -132 1 -240
-2 -240 -7 0 -8 29 -86 55 -144 45 -104 64 -155 57 -155 -4 0 -2 -4 4 -8 6 -4
29 -54 51 -112 23 -58 48 -118 57 -134 8 -16 13 -33 10 -38 -3 -4 0 -8 5 -8 6
0 11 -6 11 -14 0 -12 21 -67 50 -131 17 -36 170 -416 170 -421 0 -2 9 -23 19
-47 16 -36 29 -67 36 -87 1 -3 9 -22 18 -42 10 -21 17 -40 17 -44 0 -4 9 -25
19 -48 29 -63 51 -113 51 -119 0 -2 8 -22 17 -43 9 -22 17 -41 18 -44 1 -3 6
-14 10 -25 70 -168 187 -454 190 -466 2 -9 8 -25 13 -35 10 -19 29 -63 42 -99
5 -11 15 -36 23 -55 9 -19 30 -71 47 -115 17 -44 37 -93 44 -110 22 -50 35
-83 113 -275 41 -102 81 -198 89 -214 8 -16 14 -35 14 -41 0 -10 -293 -13
-1402 -11 l-1403 1 0 773 -1 772 348 0 348 0 11 28 c6 15 17 40 25 56 8 16 14
32 14 36 0 4 10 29 22 56 12 27 23 51 23 54 1 3 12 28 25 55 13 28 24 53 25
58 2 4 3 8 5 10 1 1 3 9 5 17 2 8 22 58 45 110 46 104 63 142 65 150 1 3 8 21
16 40 9 19 26 62 40 95 13 33 28 63 32 66 5 3 8 8 7 10 -2 5 8 36 20 64 5 11
52 121 104 245 52 124 102 243 112 265 9 22 18 45 19 50 2 6 13 33 26 60 13
28 24 52 24 55 1 3 6 16 12 30 6 14 19 45 29 70 10 25 25 60 34 78 14 28 16
80 16 362 -1 214 3 330 9 330 7 0 7 3 0 8 -13 9 -13 145 0 154 7 5 7 8 0 8
-11 0 -13 449 -2 466 9 16 1097 15 1098 0z"/>
<path d="M288 7461 c-10 -3 -48 -5 -85 -5 -37 1 -70 -2 -73 -6 -4 -6 -5 -1478
-1 -1527 1 -10 163 -13 774 -13 l772 0 0 774 0 774 -203 -1 c-111 -1 -202 1
-202 5 0 4 -7 5 -15 2 -21 -8 -944 -11 -948 -3 -1 4 -10 4 -19 0z"/>
</g>
</svg>
